{"title":"Xenia - Hardcore Youth - s1 Jul 25 2012","uid":10777527,"size":572622145,"categoryP":"porn","categoryS":"movie_clips","magnet":"?xt=urn:btih:7087fb27641929364aafb058647d69e830d087cd&amp;dn=Xenia+-+Hardcore+Youth+-+s1+Jul+25+2012&amp;tr=udp%3A%2F%2Ftracker.openbittorrent.com%3A80&amp;tr=udp%3A%2F%2Fopen.demonii.com%3A1337&amp;tr=udp%3A%2F%2Ftracker.coppersurfer.tk%3A6969&amp;tr=udp%3A%2F%2Fexodus.desync.com%3A6969","seeders":0,"leechers":1,"uploader":"athklym","files":-1,"time":1408131243,"description":" &lt;a href=&quot;http://bayimg.com/LAPJaAafn&quot; rel=&quot;nofollow&quot; target=&quot;_NEW&quot;&gt;http://bayimg.com/LAPJaAafn&lt;/a&gt;\nScintillating redhead Xenia is no stranger to anal sex, but she was a little unsure when she found out how fat her new friend's cock was. But Xenia climbed on top and let that fat fucker up her ass! Finally the dude flipped her onto her stomach and shoved his engorged stick up her tunnel and fucked her until that that tight hole was gaping wide.\n\nHardcore_Youth_Xenia_s1_July_25_2012.wmv\nFormat : Windows Media\nFile size : 546 MiB\nDuration : 24mn 11s\nOverall bit rate mode : Constant\nOverall bit rate : 3 156 Kbps\nMaximum Overall bit rate : 3 173 Kbps\nEncoded date : UTC 2012-07-23 21:52:58.961\nSfOriginalFPS : 299700\n\nVideo\nID : 2\nFormat : VC-1\nFormat profile : MP@HL\nCodec ID : WMV3\nCodec ID/Info : Windows Media Video 9\nCodec ID/Hint : WMV3\nDescription of the codec : Windows Media Video 9 - Professional\nDuration : 24mn 11s\nBit rate mode : Constant\nBit rate : 3 130 Kbps\nWidth : 960 pixels\nHeight : 540 pixels\nDisplay aspect ratio : 16:9\nFrame rate : 29.970 fps\nColor space : YUV\nChroma subsampling : 4:2:0\nBit depth : 8 bits\nScan type : Progressive\nCompression mode : Lossy\nBits/(Pixel*Frame) : 0.201\nStream size : 541 MiB (99%)\nLanguage : Russian\n\nAudio\nID : 1\nFormat : WMA\nFormat version : Version 2\nCodec ID : 161\nCodec ID/Info : Windows Media Audio\nDescription of the codec : Windows Media Audio 9.2 - 16 kbps, 22 kHz, mono (A/V) 1-pass CBR\nDuration : 24mn 11s\nBit rate mode : Constant\nBit rate : 16.0 Kbps\nChannel(s) : 1 channel\nSampling rate : 22.05 KHz\nBit depth : 16 bits\nStream size : 2.77 MiB (1%)\nLanguage : Russian","torrent":{"xt":"urn:btih:7087fb27641929364aafb058647d69e830d087cd","amp;dn":"Xenia+-+Hardcore+Youth+-+s1+Jul+25+2012","amp;tr":["udp%3A%2F%2Ftracker.openbittorrent.com%3A80","udp%3A%2F%2Fopen.demonii.com%3A1337","udp%3A%2F%2Ftracker.coppersurfer.tk%3A6969","udp%3A%2F%2Fexodus.desync.com%3A6969"],"infoHash":"7087fb27641929364aafb058647d69e830d087cd","infoHashBuffer":{"type":"Buffer","data":[112,135,251,39,100,25,41,54,74,175,176,88,100,125,105,232,48,208,135,205]},"announce":[],"urlList":[]}}